<svg width="84.32" height="13.521" viewBox="0 0 84.32 13.521" xmlns="http://www.w3.org/2000/svg">
  <g stroke-linecap="round" fill-rule="evenodd" font-size="9pt" fill="#555555">
    <path d="M 75.32 3.62 L 76.98 3.62 L 74.14 7.6 L 77.14 13.3 L 75.42 13.3 L 73.22 8.9 L 72.2 10.02 L 72.2 13.3 L 70.68 13.3 L 70.68 0 L 72.2 0 L 72.2 8.12 L 75.32 3.62 Z M 64 13.3 L 63.8 12.18 L 63.68 12.18 A 2.566 2.566 0 0 1 62.952 13.046 Q 62.452 13.416 61.762 13.497 A 3.444 3.444 0 0 1 61.36 13.52 A 2.788 2.788 0 0 1 60.317 13.34 Q 59.102 12.853 58.975 11.042 A 6.308 6.308 0 0 1 58.96 10.6 L 58.96 3.62 L 60.48 3.62 L 60.48 10.5 Q 60.48 11.44 60.83 11.81 Q 61.158 12.157 61.759 12.179 A 2.254 2.254 0 0 0 61.84 12.18 A 1.414 1.414 0 0 0 62.814 11.792 A 2.207 2.207 0 0 0 63.11 11.46 Q 63.575 10.829 63.632 9.828 A 5.049 5.049 0 0 0 63.64 9.54 L 63.64 3.62 L 65.14 3.62 L 65.14 13.3 L 64 13.3 Z M 51.74 6.34 L 51.74 13.3 L 50.24 13.3 L 50.24 6.44 Q 50.24 5.5 49.89 5.13 A 1.114 1.114 0 0 0 49.392 4.831 Q 49.216 4.778 49.005 4.764 A 2.309 2.309 0 0 0 48.86 4.76 A 1.415 1.415 0 0 0 47.856 5.176 A 2.187 2.187 0 0 0 47.6 5.47 A 2.481 2.481 0 0 0 47.223 6.263 Q 47.08 6.761 47.08 7.4 L 47.08 13.3 L 45.56 13.3 L 45.56 3.62 L 46.7 3.62 L 46.92 4.76 L 47.02 4.76 Q 47.712 3.522 49.068 3.411 A 3.347 3.347 0 0 1 49.34 3.4 A 3.116 3.116 0 0 1 50.059 3.478 Q 50.617 3.61 51 3.967 A 1.956 1.956 0 0 1 51.12 4.09 Q 51.712 4.749 51.739 6.2 A 7.558 7.558 0 0 1 51.74 6.34 Z M 26.26 7.2 L 24.7 7.2 Q 24.7 6.136 24.499 5.561 A 1.701 1.701 0 0 0 24.4 5.33 A 1.017 1.017 0 0 0 23.659 4.791 A 1.729 1.729 0 0 0 23.32 4.76 A 1.518 1.518 0 0 0 22.715 4.876 Q 22.356 5.03 22.116 5.39 A 1.94 1.94 0 0 0 22 5.59 A 3.052 3.052 0 0 0 21.779 6.194 Q 21.612 6.83 21.585 7.756 A 12.631 12.631 0 0 0 21.58 8.12 L 21.58 8.8 Q 21.58 10.5 22 11.34 A 1.7 1.7 0 0 0 22.327 11.801 Q 22.682 12.147 23.218 12.177 A 1.843 1.843 0 0 0 23.32 12.18 A 1.559 1.559 0 0 0 23.765 12.12 A 1.114 1.114 0 0 0 24.44 11.57 A 2.15 2.15 0 0 0 24.627 11.102 Q 24.759 10.63 24.777 9.949 A 8.41 8.41 0 0 0 24.78 9.72 L 26.26 9.72 Q 26.26 11.38 25.54 12.45 A 2.347 2.347 0 0 1 23.866 13.481 A 3.64 3.64 0 0 1 23.32 13.52 A 3.826 3.826 0 0 1 22.335 13.401 A 2.561 2.561 0 0 1 20.8 12.3 Q 20.075 11.194 20.007 8.954 A 15.678 15.678 0 0 1 20 8.48 A 13.642 13.642 0 0 1 20.063 7.121 Q 20.224 5.515 20.8 4.63 A 2.613 2.613 0 0 1 22.659 3.451 A 4.108 4.108 0 0 1 23.32 3.4 Q 24.42 3.4 25.092 3.89 A 2.134 2.134 0 0 1 25.56 4.36 Q 26.26 5.32 26.26 7.2 Z M 6.84 7.96 L 6.84 8.92 L 1.6 8.92 A 8.975 8.975 0 0 0 1.65 9.795 Q 1.764 10.822 2.13 11.39 Q 2.64 12.18 3.72 12.18 A 1.384 1.384 0 0 0 4.773 11.728 A 1.786 1.786 0 0 0 4.89 11.59 Q 5.294 11.061 5.335 10.218 A 4.015 4.015 0 0 0 5.34 10.02 L 6.84 10.02 Q 6.84 11.62 5.97 12.57 Q 5.1 13.52 3.68 13.52 A 4.559 4.559 0 0 1 2.586 13.397 A 2.907 2.907 0 0 1 0.91 12.32 Q 0.08 11.225 0.007 8.93 A 14.252 14.252 0 0 1 0 8.48 Q 0 5.88 0.9 4.64 Q 1.8 3.4 3.64 3.4 Q 5.28 3.4 6.06 4.48 A 3.31 3.31 0 0 1 6.5 5.367 Q 6.792 6.233 6.833 7.524 A 13.666 13.666 0 0 1 6.84 7.96 Z M 18.56 7.96 L 18.56 8.92 L 13.32 8.92 A 8.975 8.975 0 0 0 13.37 9.795 Q 13.484 10.822 13.85 11.39 Q 14.36 12.18 15.44 12.18 A 1.384 1.384 0 0 0 16.493 11.728 A 1.786 1.786 0 0 0 16.61 11.59 Q 17.014 11.061 17.055 10.218 A 4.015 4.015 0 0 0 17.06 10.02 L 18.56 10.02 Q 18.56 11.62 17.69 12.57 Q 16.82 13.52 15.4 13.52 A 4.559 4.559 0 0 1 14.306 13.397 A 2.907 2.907 0 0 1 12.63 12.32 Q 11.8 11.225 11.727 8.93 A 14.252 14.252 0 0 1 11.72 8.48 Q 11.72 5.88 12.62 4.64 Q 13.52 3.4 15.36 3.4 Q 17 3.4 17.78 4.48 A 3.31 3.31 0 0 1 18.22 5.367 Q 18.512 6.233 18.553 7.524 A 13.666 13.666 0 0 1 18.56 7.96 Z M 30.74 3.62 L 30.74 4.98 L 29.46 4.98 L 29.46 11.3 A 1.29 1.29 0 0 0 29.484 11.555 Q 29.532 11.795 29.68 11.95 Q 29.9 12.18 30.32 12.18 L 30.74 12.18 L 30.74 13.22 A 1.068 1.068 0 0 1 30.574 13.309 Q 30.489 13.346 30.388 13.376 A 2.226 2.226 0 0 1 30.26 13.41 Q 29.96 13.48 29.66 13.48 Q 28.76 13.48 28.35 12.84 Q 27.941 12.201 27.94 11.263 A 3.85 3.85 0 0 1 27.94 11.26 L 27.94 4.98 L 27.1 4.98 L 27.1 3.62 L 27.94 3.62 L 28.28 0.94 L 29.46 0.94 L 29.46 3.62 L 30.74 3.62 Z M 84.32 3.62 L 84.32 4.98 L 83.04 4.98 L 83.04 11.3 A 1.29 1.29 0 0 0 83.064 11.555 Q 83.112 11.795 83.26 11.95 Q 83.48 12.18 83.9 12.18 L 84.32 12.18 L 84.32 13.22 A 1.068 1.068 0 0 1 84.154 13.309 Q 84.069 13.346 83.968 13.376 A 2.226 2.226 0 0 1 83.84 13.41 Q 83.54 13.48 83.24 13.48 Q 82.34 13.48 81.93 12.84 Q 81.521 12.201 81.52 11.263 A 3.85 3.85 0 0 1 81.52 11.26 L 81.52 4.98 L 80.68 4.98 L 80.68 3.62 L 81.52 3.62 L 81.86 0.94 L 83.04 0.94 L 83.04 3.62 L 84.32 3.62 Z M 8.54 13.3 L 8.54 0 L 10.06 0 L 10.06 13.3 L 8.54 13.3 Z M 35.96 3.54 L 35.96 5.12 L 35.46 5.12 A 1.837 1.837 0 0 0 34.811 5.231 A 1.633 1.633 0 0 0 34.18 5.66 A 1.606 1.606 0 0 0 33.861 6.195 Q 33.691 6.648 33.681 7.311 A 5.584 5.584 0 0 0 33.68 7.4 L 33.68 13.3 L 32.16 13.3 L 32.16 3.62 L 33.3 3.62 L 33.52 4.9 L 33.62 4.9 A 3.044 3.044 0 0 1 33.889 4.279 A 2.489 2.489 0 0 1 34.22 3.83 A 1.33 1.33 0 0 1 35.142 3.404 A 1.81 1.81 0 0 1 35.26 3.4 A 1.672 1.672 0 0 1 35.524 3.42 A 1.358 1.358 0 0 1 35.7 3.46 A 35.803 35.803 0 0 1 35.781 3.484 Q 35.913 3.524 35.96 3.54 Z M 42.039 3.854 A 3.251 3.251 0 0 0 40.28 3.4 Q 37.48 3.4 36.933 6.689 A 10.976 10.976 0 0 0 36.8 8.48 A 11.334 11.334 0 0 0 36.895 10.005 Q 37.206 12.287 38.54 13.087 A 3.322 3.322 0 0 0 40.28 13.52 Q 43.064 13.52 43.608 10.256 A 10.867 10.867 0 0 0 43.74 8.48 A 11.501 11.501 0 0 0 43.641 6.906 Q 43.329 4.661 42.039 3.854 Z M 67.16 13.3 L 67.16 3.62 L 68.68 3.62 L 68.68 13.3 L 67.16 13.3 Z M 78.02 13.3 L 78.02 3.62 L 79.54 3.62 L 79.54 13.3 L 78.02 13.3 Z M 38.38 8.12 L 38.38 8.8 A 8.983 8.983 0 0 0 38.447 9.949 Q 38.605 11.165 39.135 11.718 A 1.515 1.515 0 0 0 40.28 12.18 A 1.548 1.548 0 0 0 41.76 11.199 Q 42.16 10.359 42.16 8.8 L 42.16 8.12 A 9.493 9.493 0 0 0 42.123 7.25 Q 42.039 6.342 41.766 5.759 A 2.504 2.504 0 0 0 41.69 5.61 A 1.791 1.791 0 0 0 41.303 5.118 Q 40.891 4.76 40.28 4.76 A 1.565 1.565 0 0 0 38.784 5.736 Q 38.38 6.571 38.38 8.12 Z M 53.02 9.24 L 53.02 7.44 L 57.66 7.44 L 57.66 9.24 L 53.02 9.24 Z M 1.62 7.56 L 5.26 7.56 A 7.233 7.233 0 0 0 5.203 6.608 Q 4.956 4.76 3.64 4.76 A 2.191 2.191 0 0 0 3.055 4.833 A 1.497 1.497 0 0 0 2.19 5.45 A 2.532 2.532 0 0 0 1.911 6.011 Q 1.704 6.577 1.632 7.407 A 9.258 9.258 0 0 0 1.62 7.56 Z M 13.34 7.56 L 16.98 7.56 A 7.233 7.233 0 0 0 16.923 6.608 Q 16.676 4.76 15.36 4.76 A 2.191 2.191 0 0 0 14.775 4.833 A 1.497 1.497 0 0 0 13.91 5.45 A 2.532 2.532 0 0 0 13.631 6.011 Q 13.424 6.577 13.352 7.407 A 9.258 9.258 0 0 0 13.34 7.56 Z M 67.16 1.82 L 67.16 0 L 68.68 0 L 68.68 1.82 L 67.16 1.82 Z M 78.02 1.82 L 78.02 0 L 79.54 0 L 79.54 1.82 L 78.02 1.82 Z"/>
  </g>
</svg>
