<svg viewBox="0 0 1024 1024" version="1.1" xmlns="http://www.w3.org/2000/svg">
  <path fill="#FFAB00" d="m294.85267,88.15111l0,478.60889l127.28836,0l0,391.5891l297.00618,-522.1188l-169.71782,0l169.71782,-348.07919l-424.29454,0z"/>
  <path transform="rotate(-167.351 512.333 530.729)" fill="#6988e6" d="m966.80588,283.34182c-55.62961,-90.95491 -304.38843,-53.81182 -555.40796,82.58248s-409.26923,321.1964 -353.55887,412.15131c36.17136,59.13972 153.40531,64.23928 300.59367,22.83386c-36.6558,-7.15461 -75.41083,-14.46145 -115.61916,-21.69217a283.47686,267.23236 0 0 1 -52.1578,-12.33028l-0.96888,0c-44.24532,0 -70.00127,-9.74244 -75.89526,-19.48491c-20.50787,-33.48967 66.93315,-185.79156 329.90216,-328.95992c140.89067,-76.64567 290.66269,-124.29235 391.26428,-124.29235c44.24532,0 70.00126,9.74244 75.89525,19.40879c10.65764,17.35373 -7.67026,66.29433 -63.78431,129.39192c-0.56517,1.44615 -1.04962,2.9684 -1.6148,4.49066c-16.87458,43.46045 -32.29585,85.627 -46.18307,125.35793c136.6922,-109.67867 207.74309,-223.84801 167.53475,-289.45732l-0.00001,0.00001z"/>
</svg>
