<svg viewBox="0 0 1024 1024" version="1.1" xmlns="http://www.w3.org/2000/svg" width="640" height="640"><path d="M321.49081214 128.78796799V548.68514314H433.16328745v343.55295203l260.57174102-458.07060269H544.83839474L693.73590581 128.78796799H321.49081214z" fill="#FFAB00"></path><path d="M75.72047526 641.53541914c30.14675178 88.54785846 250.22891882 104.54242897 491.31432306 36.00818153s412.05473832-196.32850584 381.83955494-284.89127888c-19.60214408-57.57554082-118.97886461-84.46301834-252.93196701-77.2952469a6970.67439429 6970.67439429 0 0 0 94.80671786 40.78084697 248.70236774 234.45017104 12.649 0 1 42.27932357 20.5759784l0.82995247 0.18599359c37.87513595 8.50043299 58.05193004 21.78844599 61.22522616 31.26008128 11.12188966 32.60853475-92.99064849 146.18568957-345.60590003 218.22223123-135.33226235 38.54453739-272.69641682 50.55779251-358.81407616 31.23112945-37.87601331-8.5013103-58.05280737-21.78844599-61.24101805-31.19515899-5.78948881-16.90348253 19.30209785-55.27694091 79.45961558-98.51079758 0.7623982-1.12912139 1.46952474-2.338957 2.2459602-3.53387799 22.79386411-33.96137483 44.09627026-67.09542918 63.61682284-98.43797933C136.66144708 493.56261198 53.9048321 577.64574721 75.72047526 641.53541914z" fill="#6988E6"></path></svg>