<svg width="96.64" height="16.48" viewBox="0 0 96.64 16.48" xmlns="http://www.w3.org/2000/svg">
  <g stroke-linecap="round" fill-rule="evenodd" font-size="9pt" fill="#555555">
    <path d="M 40.34 6.74 L 40.34 6.84 Q 41.2 7.14 41.71 7.92 Q 42.22 8.7 42.22 9.9 A 4.643 4.643 0 0 1 42.091 11.027 A 3.239 3.239 0 0 1 41.26 12.54 A 3.222 3.222 0 0 1 39.25 13.494 A 4.427 4.427 0 0 1 38.76 13.52 A 4.581 4.581 0 0 1 37.682 13.401 A 3.019 3.019 0 0 1 36.13 12.51 A 3.369 3.369 0 0 1 35.354 11.048 Q 35.2 10.456 35.2 9.74 L 35.2 9.58 L 36.74 9.58 L 36.74 9.78 A 4.55 4.55 0 0 0 36.785 10.446 Q 36.889 11.146 37.23 11.57 A 1.589 1.589 0 0 0 38.232 12.146 A 2.37 2.37 0 0 0 38.64 12.18 A 2.41 2.41 0 0 0 39.276 12.1 A 1.741 1.741 0 0 0 40.12 11.59 A 1.829 1.829 0 0 0 40.489 10.957 Q 40.588 10.678 40.63 10.335 A 4.447 4.447 0 0 0 40.66 9.8 A 3.531 3.531 0 0 0 40.565 8.941 Q 40.217 7.56 38.6 7.56 L 37.54 7.56 L 37.54 6.22 L 38.62 6.22 Q 39.4 6.22 39.92 5.65 Q 40.44 5.08 40.44 4.02 A 4.153 4.153 0 0 0 40.399 3.414 Q 40.299 2.742 39.96 2.36 A 1.567 1.567 0 0 0 38.814 1.822 A 2.068 2.068 0 0 0 38.72 1.82 A 1.809 1.809 0 0 0 38.135 1.91 A 1.501 1.501 0 0 0 37.45 2.39 Q 37.099 2.816 37.01 3.549 A 4.425 4.425 0 0 0 36.98 4.08 L 36.98 4.26 L 35.44 4.26 L 35.44 3.92 Q 35.44 2.36 36.34 1.41 Q 37.24 0.46 38.7 0.46 A 4 4 0 0 1 39.739 0.588 A 2.906 2.906 0 0 1 41.09 1.37 Q 41.929 2.228 41.977 3.735 A 5.819 5.819 0 0 1 41.98 3.92 A 4.281 4.281 0 0 1 41.922 4.646 Q 41.853 5.045 41.703 5.37 A 2.314 2.314 0 0 1 41.55 5.65 A 3.087 3.087 0 0 1 40.665 6.544 A 3.802 3.802 0 0 1 40.34 6.74 Z M 62.48 13.3 L 62.28 12.18 L 62.16 12.18 A 2.566 2.566 0 0 1 61.432 13.046 Q 60.932 13.416 60.241 13.497 A 3.444 3.444 0 0 1 59.84 13.52 A 2.788 2.788 0 0 1 58.797 13.34 Q 57.582 12.853 57.455 11.042 A 6.308 6.308 0 0 1 57.44 10.6 L 57.44 3.62 L 58.96 3.62 L 58.96 10.5 Q 58.96 11.44 59.31 11.81 Q 59.638 12.157 60.239 12.179 A 2.254 2.254 0 0 0 60.32 12.18 A 1.414 1.414 0 0 0 61.294 11.792 A 2.207 2.207 0 0 0 61.59 11.46 Q 62.055 10.829 62.112 9.828 A 5.049 5.049 0 0 0 62.12 9.54 L 62.12 3.62 L 63.62 3.62 L 63.62 13.3 L 62.48 13.3 Z M 6.02 6.06 L 6 6.42 L 4.44 6.42 L 4.44 6.24 A 2.113 2.113 0 0 0 4.384 5.742 A 1.562 1.562 0 0 0 4.12 5.17 A 1.011 1.011 0 0 0 3.572 4.8 Q 3.363 4.74 3.1 4.74 Q 2.67 4.74 2.394 4.883 A 0.848 0.848 0 0 0 2.09 5.14 A 1.525 1.525 0 0 0 1.8 6.052 A 1.87 1.87 0 0 0 1.8 6.06 A 1.331 1.331 0 0 0 1.851 6.438 A 0.983 0.983 0 0 0 2.23 6.97 Q 2.618 7.25 3.39 7.522 A 10.631 10.631 0 0 0 3.56 7.58 Q 4.38 7.86 4.91 8.15 A 2.408 2.408 0 0 1 5.581 8.701 A 3.065 3.065 0 0 1 5.82 9.02 A 2.161 2.161 0 0 1 6.099 9.666 Q 6.172 9.946 6.192 10.275 A 4.28 4.28 0 0 1 6.2 10.54 A 4.248 4.248 0 0 1 6.118 11.401 Q 6.013 11.91 5.771 12.296 A 2.199 2.199 0 0 1 5.36 12.78 A 2.863 2.863 0 0 1 4.11 13.412 Q 3.684 13.513 3.187 13.52 A 5.222 5.222 0 0 1 3.12 13.52 A 4.716 4.716 0 0 1 2.226 13.441 Q 1.722 13.344 1.332 13.126 A 2.307 2.307 0 0 1 0.78 12.7 A 2.805 2.805 0 0 1 0.001 10.755 A 3.639 3.639 0 0 1 0 10.68 A 7.661 7.661 0 0 1 0.001 10.585 Q 0.002 10.455 0.009 10.393 A 0.572 0.572 0 0 1 0.01 10.38 A 4.198 4.198 0 0 0 0.013 10.352 Q 0.02 10.296 0.02 10.28 L 1.6 10.28 L 1.6 10.48 A 2.673 2.673 0 0 0 1.642 10.97 Q 1.693 11.241 1.804 11.452 A 1.272 1.272 0 0 0 2.04 11.77 A 1.489 1.489 0 0 0 2.906 12.182 A 2.045 2.045 0 0 0 3.18 12.2 A 1.668 1.668 0 0 0 3.713 12.118 A 1.422 1.422 0 0 0 4.22 11.82 Q 4.64 11.44 4.64 10.76 Q 4.64 10.283 4.43 9.966 A 1.094 1.094 0 0 0 4.39 9.91 Q 4.14 9.58 3.77 9.39 A 5.308 5.308 0 0 0 3.51 9.266 Q 3.215 9.134 2.8 8.982 A 18.406 18.406 0 0 0 2.74 8.96 A 14.712 14.712 0 0 1 2.215 8.757 Q 1.983 8.662 1.787 8.57 A 6.082 6.082 0 0 1 1.43 8.39 A 2.214 2.214 0 0 1 0.822 7.891 A 2.823 2.823 0 0 1 0.59 7.58 A 2.009 2.009 0 0 1 0.339 6.999 Q 0.24 6.628 0.24 6.16 Q 0.24 4.88 1.05 4.14 Q 1.841 3.418 3.174 3.4 A 5.072 5.072 0 0 1 3.24 3.4 A 3.577 3.577 0 0 1 4.093 3.496 A 2.423 2.423 0 0 1 5.28 4.16 A 2.584 2.584 0 0 1 6.017 5.91 A 3.4 3.4 0 0 1 6.02 6.06 Z M 96.46 6.06 L 96.44 6.42 L 94.88 6.42 L 94.88 6.24 A 2.113 2.113 0 0 0 94.824 5.742 A 1.562 1.562 0 0 0 94.56 5.17 A 1.011 1.011 0 0 0 94.012 4.8 Q 93.803 4.74 93.54 4.74 Q 93.11 4.74 92.834 4.883 A 0.848 0.848 0 0 0 92.53 5.14 A 1.525 1.525 0 0 0 92.24 6.052 A 1.87 1.87 0 0 0 92.24 6.06 A 1.331 1.331 0 0 0 92.291 6.438 A 0.983 0.983 0 0 0 92.67 6.97 Q 93.058 7.25 93.83 7.522 A 10.631 10.631 0 0 0 94 7.58 Q 94.82 7.86 95.35 8.15 A 2.408 2.408 0 0 1 96.021 8.701 A 3.065 3.065 0 0 1 96.26 9.02 A 2.161 2.161 0 0 1 96.539 9.666 Q 96.612 9.946 96.632 10.275 A 4.28 4.28 0 0 1 96.64 10.54 A 4.248 4.248 0 0 1 96.558 11.401 Q 96.453 11.91 96.211 12.296 A 2.199 2.199 0 0 1 95.8 12.78 A 2.863 2.863 0 0 1 94.55 13.412 Q 94.124 13.513 93.627 13.52 A 5.222 5.222 0 0 1 93.56 13.52 A 4.716 4.716 0 0 1 92.666 13.441 Q 92.162 13.344 91.772 13.126 A 2.307 2.307 0 0 1 91.22 12.7 A 2.805 2.805 0 0 1 90.441 10.755 A 3.639 3.639 0 0 1 90.44 10.68 A 7.661 7.661 0 0 1 90.441 10.585 Q 90.442 10.455 90.449 10.393 A 0.572 0.572 0 0 1 90.45 10.38 A 4.198 4.198 0 0 0 90.453 10.352 Q 90.46 10.296 90.46 10.28 L 92.04 10.28 L 92.04 10.48 A 2.673 2.673 0 0 0 92.082 10.97 Q 92.133 11.241 92.244 11.452 A 1.272 1.272 0 0 0 92.48 11.77 A 1.489 1.489 0 0 0 93.346 12.182 A 2.045 2.045 0 0 0 93.62 12.2 A 1.668 1.668 0 0 0 94.153 12.118 A 1.422 1.422 0 0 0 94.66 11.82 Q 95.08 11.44 95.08 10.76 Q 95.08 10.283 94.87 9.966 A 1.094 1.094 0 0 0 94.83 9.91 Q 94.58 9.58 94.21 9.39 A 5.308 5.308 0 0 0 93.95 9.266 Q 93.655 9.134 93.24 8.982 A 18.406 18.406 0 0 0 93.18 8.96 A 14.712 14.712 0 0 1 92.655 8.757 Q 92.423 8.662 92.227 8.57 A 6.082 6.082 0 0 1 91.87 8.39 A 2.214 2.214 0 0 1 91.262 7.891 A 2.823 2.823 0 0 1 91.03 7.58 A 2.009 2.009 0 0 1 90.779 6.999 Q 90.68 6.628 90.68 6.16 Q 90.68 4.88 91.49 4.14 Q 92.281 3.418 93.614 3.4 A 5.072 5.072 0 0 1 93.68 3.4 A 3.577 3.577 0 0 1 94.533 3.496 A 2.423 2.423 0 0 1 95.72 4.16 A 2.584 2.584 0 0 1 96.457 5.91 A 3.4 3.4 0 0 1 96.46 6.06 Z M 33.78 7.96 L 33.78 8.92 L 28.54 8.92 A 8.975 8.975 0 0 0 28.59 9.795 Q 28.703 10.822 29.07 11.39 Q 29.58 12.18 30.66 12.18 A 1.384 1.384 0 0 0 31.713 11.728 A 1.786 1.786 0 0 0 31.83 11.59 Q 32.234 11.061 32.275 10.218 A 4.015 4.015 0 0 0 32.28 10.02 L 33.78 10.02 Q 33.78 11.62 32.91 12.57 Q 32.04 13.52 30.62 13.52 A 4.559 4.559 0 0 1 29.526 13.397 A 2.907 2.907 0 0 1 27.85 12.32 Q 27.02 11.225 26.947 8.93 A 14.252 14.252 0 0 1 26.94 8.48 Q 26.94 5.88 27.84 4.64 Q 28.74 3.4 30.58 3.4 Q 32.22 3.4 33 4.48 A 3.31 3.31 0 0 1 33.44 5.367 Q 33.732 6.233 33.773 7.524 A 13.666 13.666 0 0 1 33.78 7.96 Z M 72.32 7.96 L 72.32 8.92 L 67.08 8.92 A 8.975 8.975 0 0 0 67.13 9.795 Q 67.243 10.822 67.61 11.39 Q 68.12 12.18 69.2 12.18 A 1.384 1.384 0 0 0 70.253 11.728 A 1.786 1.786 0 0 0 70.37 11.59 Q 70.774 11.061 70.815 10.218 A 4.015 4.015 0 0 0 70.82 10.02 L 72.32 10.02 Q 72.32 11.62 71.45 12.57 Q 70.58 13.52 69.16 13.52 A 4.559 4.559 0 0 1 68.066 13.397 A 2.907 2.907 0 0 1 66.39 12.32 Q 65.56 11.225 65.487 8.93 A 14.252 14.252 0 0 1 65.48 8.48 Q 65.48 5.88 66.38 4.64 Q 67.28 3.4 69.12 3.4 Q 70.76 3.4 71.54 4.48 A 3.31 3.31 0 0 1 71.98 5.367 Q 72.272 6.233 72.313 7.524 A 13.666 13.666 0 0 1 72.32 7.96 Z M 89.06 7.96 L 89.06 8.92 L 83.82 8.92 A 8.975 8.975 0 0 0 83.87 9.795 Q 83.983 10.822 84.35 11.39 Q 84.86 12.18 85.94 12.18 A 1.384 1.384 0 0 0 86.993 11.728 A 1.786 1.786 0 0 0 87.11 11.59 Q 87.514 11.061 87.555 10.218 A 4.015 4.015 0 0 0 87.56 10.02 L 89.06 10.02 Q 89.06 11.62 88.19 12.57 Q 87.32 13.52 85.9 13.52 A 4.559 4.559 0 0 1 84.806 13.397 A 2.907 2.907 0 0 1 83.13 12.32 Q 82.3 11.225 82.227 8.93 A 14.252 14.252 0 0 1 82.22 8.48 Q 82.22 5.88 83.12 4.64 Q 84.02 3.4 85.86 3.4 Q 87.5 3.4 88.28 4.48 A 3.31 3.31 0 0 1 88.72 5.367 Q 89.012 6.233 89.053 7.524 A 13.666 13.666 0 0 1 89.06 7.96 Z M 12.76 4.76 L 12.86 4.76 L 13.06 3.62 L 14.2 3.62 L 14.2 16.48 L 12.7 16.48 L 12.7 12.44 L 12.6 12.44 Q 12.34 12.94 11.79 13.23 Q 11.24 13.52 10.54 13.52 A 2.255 2.255 0 0 1 8.799 12.715 A 3.581 3.581 0 0 1 8.45 12.25 Q 7.673 11.032 7.641 8.681 A 14.972 14.972 0 0 1 7.64 8.48 A 13.479 13.479 0 0 1 7.702 7.134 Q 7.862 5.548 8.43 4.65 Q 9.197 3.437 10.557 3.401 A 3.164 3.164 0 0 1 10.64 3.4 Q 11.32 3.4 11.87 3.75 A 2.406 2.406 0 0 1 12.565 4.431 A 3.061 3.061 0 0 1 12.76 4.76 Z M 53.8 4.76 L 53.9 4.76 L 54.1 3.62 L 55.24 3.62 L 55.24 16.48 L 53.74 16.48 L 53.74 12.44 L 53.64 12.44 Q 53.38 12.94 52.83 13.23 Q 52.28 13.52 51.58 13.52 A 2.255 2.255 0 0 1 49.839 12.715 A 3.581 3.581 0 0 1 49.49 12.25 Q 48.713 11.032 48.681 8.681 A 14.972 14.972 0 0 1 48.68 8.48 A 13.479 13.479 0 0 1 48.742 7.134 Q 48.902 5.548 49.47 4.65 Q 50.237 3.437 51.597 3.401 A 3.164 3.164 0 0 1 51.68 3.4 Q 52.36 3.4 52.91 3.75 A 2.406 2.406 0 0 1 53.605 4.431 A 3.061 3.061 0 0 1 53.8 4.76 Z M 25.86 3.62 L 25.86 4.98 L 24.58 4.98 L 24.58 11.3 A 1.29 1.29 0 0 0 24.604 11.555 Q 24.652 11.795 24.8 11.95 Q 25.02 12.18 25.44 12.18 L 25.86 12.18 L 25.86 13.22 A 1.068 1.068 0 0 1 25.694 13.309 Q 25.609 13.346 25.508 13.376 A 2.226 2.226 0 0 1 25.38 13.41 Q 25.08 13.48 24.78 13.48 Q 23.88 13.48 23.47 12.84 Q 23.061 12.201 23.06 11.263 A 3.85 3.85 0 0 1 23.06 11.26 L 23.06 4.98 L 22.22 4.98 L 22.22 3.62 L 23.06 3.62 L 23.4 0.94 L 24.58 0.94 L 24.58 3.62 L 25.86 3.62 Z M 16.22 13.3 L 16.22 0 L 17.74 0 L 17.74 13.3 L 16.22 13.3 Z M 78 3.54 L 78 5.12 L 77.5 5.12 A 1.837 1.837 0 0 0 76.851 5.231 A 1.633 1.633 0 0 0 76.22 5.66 A 1.606 1.606 0 0 0 75.901 6.195 Q 75.731 6.648 75.721 7.311 A 5.584 5.584 0 0 0 75.72 7.4 L 75.72 13.3 L 74.2 13.3 L 74.2 3.62 L 75.34 3.62 L 75.56 4.9 L 75.66 4.9 A 3.044 3.044 0 0 1 75.929 4.279 A 2.489 2.489 0 0 1 76.26 3.83 A 1.33 1.33 0 0 1 77.182 3.404 A 1.81 1.81 0 0 1 77.3 3.4 A 1.672 1.672 0 0 1 77.564 3.42 A 1.358 1.358 0 0 1 77.74 3.46 A 35.803 35.803 0 0 1 77.821 3.484 Q 77.953 3.524 78 3.54 Z M 19.56 13.3 L 19.56 3.62 L 21.08 3.62 L 21.08 13.3 L 19.56 13.3 Z M 79.04 13.3 L 79.04 3.62 L 80.56 3.62 L 80.56 13.3 L 79.04 13.3 Z M 9.22 8.12 L 9.22 8.8 Q 9.22 10.274 9.515 11.076 A 2.369 2.369 0 0 0 9.65 11.38 Q 10.054 12.131 10.853 12.177 A 1.849 1.849 0 0 0 10.96 12.18 Q 12.7 12.18 12.7 8.8 L 12.7 8.12 A 9.715 9.715 0 0 0 12.64 6.989 Q 12.506 5.853 12.072 5.296 A 1.339 1.339 0 0 0 10.96 4.76 Q 10.08 4.76 9.65 5.55 Q 9.288 6.215 9.231 7.58 A 12.874 12.874 0 0 0 9.22 8.12 Z M 50.26 8.12 L 50.26 8.8 Q 50.26 10.274 50.555 11.076 A 2.369 2.369 0 0 0 50.69 11.38 Q 51.094 12.131 51.893 12.177 A 1.849 1.849 0 0 0 52 12.18 Q 53.74 12.18 53.74 8.8 L 53.74 8.12 A 9.715 9.715 0 0 0 53.68 6.989 Q 53.546 5.853 53.112 5.296 A 1.339 1.339 0 0 0 52 4.76 Q 51.12 4.76 50.69 5.55 Q 50.328 6.215 50.271 7.58 A 12.874 12.874 0 0 0 50.26 8.12 Z M 43.12 9.24 L 43.12 7.44 L 47.76 7.44 L 47.76 9.24 L 43.12 9.24 Z M 28.56 7.56 L 32.2 7.56 A 7.233 7.233 0 0 0 32.143 6.608 Q 31.896 4.76 30.58 4.76 A 2.191 2.191 0 0 0 29.995 4.833 A 1.497 1.497 0 0 0 29.13 5.45 A 2.532 2.532 0 0 0 28.851 6.011 Q 28.644 6.577 28.572 7.407 A 9.258 9.258 0 0 0 28.56 7.56 Z M 67.1 7.56 L 70.74 7.56 A 7.233 7.233 0 0 0 70.683 6.608 Q 70.436 4.76 69.12 4.76 A 2.191 2.191 0 0 0 68.535 4.833 A 1.497 1.497 0 0 0 67.67 5.45 A 2.532 2.532 0 0 0 67.391 6.011 Q 67.184 6.577 67.112 7.407 A 9.258 9.258 0 0 0 67.1 7.56 Z M 83.84 7.56 L 87.48 7.56 A 7.233 7.233 0 0 0 87.423 6.608 Q 87.176 4.76 85.86 4.76 A 2.191 2.191 0 0 0 85.275 4.833 A 1.497 1.497 0 0 0 84.41 5.45 A 2.532 2.532 0 0 0 84.131 6.011 Q 83.924 6.577 83.852 7.407 A 9.258 9.258 0 0 0 83.84 7.56 Z M 19.56 1.82 L 19.56 0 L 21.08 0 L 21.08 1.82 L 19.56 1.82 Z M 79.04 1.82 L 79.04 0 L 80.56 0 L 80.56 1.82 L 79.04 1.82 Z"/>
  </g>
</svg>
