<svg width="86.34" height="13.662" viewBox="0 0 86.34 13.662" xmlns="http://www.w3.org/2000/svg">
  <g id="svgGroup" stroke-linecap="round" fill-rule="evenodd" font-size="9pt" fill="#555555">
    <path d="M 51.74 6.48 L 51.74 13.44 L 50.24 13.44 L 50.24 6.58 Q 50.24 5.64 49.89 5.27 A 1.114 1.114 0 0 0 49.392 4.971 Q 49.216 4.918 49.005 4.904 A 2.309 2.309 0 0 0 48.86 4.9 A 1.415 1.415 0 0 0 47.856 5.316 A 2.187 2.187 0 0 0 47.6 5.61 A 2.481 2.481 0 0 0 47.223 6.403 Q 47.08 6.901 47.08 7.54 L 47.08 13.44 L 45.56 13.44 L 45.56 3.76 L 46.7 3.76 L 46.92 4.9 L 47.02 4.9 Q 47.712 3.662 49.068 3.551 A 3.347 3.347 0 0 1 49.34 3.54 A 3.116 3.116 0 0 1 50.059 3.618 Q 50.617 3.75 51 4.107 A 1.956 1.956 0 0 1 51.12 4.23 Q 51.712 4.889 51.739 6.34 A 7.558 7.558 0 0 1 51.74 6.48 Z M 81.04 6.48 L 81.04 13.44 L 79.54 13.44 L 79.54 6.58 Q 79.54 5.64 79.19 5.27 A 1.114 1.114 0 0 0 78.692 4.971 Q 78.516 4.918 78.305 4.904 A 2.309 2.309 0 0 0 78.16 4.9 A 1.415 1.415 0 0 0 77.156 5.316 A 2.187 2.187 0 0 0 76.9 5.61 A 2.481 2.481 0 0 0 76.523 6.403 Q 76.38 6.901 76.38 7.54 L 76.38 13.44 L 74.86 13.44 L 74.86 3.76 L 76 3.76 L 76.22 4.9 L 76.32 4.9 Q 77.012 3.662 78.368 3.551 A 3.347 3.347 0 0 1 78.64 3.54 A 3.116 3.116 0 0 1 79.359 3.618 Q 79.917 3.75 80.3 4.107 A 1.956 1.956 0 0 1 80.42 4.23 Q 81.012 4.889 81.039 6.34 A 7.558 7.558 0 0 1 81.04 6.48 Z M 26.26 7.34 L 24.7 7.34 Q 24.7 6.276 24.499 5.701 A 1.701 1.701 0 0 0 24.4 5.47 A 1.017 1.017 0 0 0 23.659 4.931 A 1.729 1.729 0 0 0 23.32 4.9 A 1.518 1.518 0 0 0 22.715 5.016 Q 22.356 5.17 22.116 5.53 A 1.94 1.94 0 0 0 22 5.73 A 3.052 3.052 0 0 0 21.779 6.334 Q 21.612 6.97 21.585 7.896 A 12.631 12.631 0 0 0 21.58 8.26 L 21.58 8.94 Q 21.58 10.64 22 11.48 A 1.7 1.7 0 0 0 22.327 11.941 Q 22.682 12.287 23.218 12.317 A 1.843 1.843 0 0 0 23.32 12.32 A 1.559 1.559 0 0 0 23.765 12.26 A 1.114 1.114 0 0 0 24.44 11.71 A 2.15 2.15 0 0 0 24.627 11.242 Q 24.759 10.77 24.777 10.089 A 8.41 8.41 0 0 0 24.78 9.86 L 26.26 9.86 Q 26.26 11.52 25.54 12.59 A 2.347 2.347 0 0 1 23.866 13.621 A 3.64 3.64 0 0 1 23.32 13.66 A 3.826 3.826 0 0 1 22.335 13.541 A 2.561 2.561 0 0 1 20.8 12.44 Q 20.075 11.334 20.007 9.094 A 15.678 15.678 0 0 1 20 8.62 A 13.642 13.642 0 0 1 20.063 7.261 Q 20.224 5.655 20.8 4.77 A 2.613 2.613 0 0 1 22.659 3.591 A 4.108 4.108 0 0 1 23.32 3.54 Q 24.42 3.54 25.092 4.03 A 2.134 2.134 0 0 1 25.56 4.5 Q 26.26 5.46 26.26 7.34 Z M 64.78 7.34 L 63.22 7.34 Q 63.22 6.276 63.019 5.701 A 1.701 1.701 0 0 0 62.92 5.47 A 1.017 1.017 0 0 0 62.179 4.931 A 1.729 1.729 0 0 0 61.84 4.9 A 1.518 1.518 0 0 0 61.235 5.016 Q 60.876 5.17 60.636 5.53 A 1.94 1.94 0 0 0 60.52 5.73 A 3.052 3.052 0 0 0 60.299 6.334 Q 60.132 6.97 60.105 7.896 A 12.631 12.631 0 0 0 60.1 8.26 L 60.1 8.94 Q 60.1 10.64 60.52 11.48 A 1.7 1.7 0 0 0 60.847 11.941 Q 61.202 12.287 61.738 12.317 A 1.843 1.843 0 0 0 61.84 12.32 A 1.559 1.559 0 0 0 62.285 12.26 A 1.114 1.114 0 0 0 62.96 11.71 A 2.15 2.15 0 0 0 63.147 11.242 Q 63.279 10.77 63.297 10.089 A 8.41 8.41 0 0 0 63.3 9.86 L 64.78 9.86 Q 64.78 11.52 64.06 12.59 A 2.347 2.347 0 0 1 62.386 13.621 A 3.64 3.64 0 0 1 61.84 13.66 A 3.826 3.826 0 0 1 60.855 13.541 A 2.561 2.561 0 0 1 59.32 12.44 Q 58.595 11.334 58.527 9.094 A 15.678 15.678 0 0 1 58.52 8.62 A 13.642 13.642 0 0 1 58.583 7.261 Q 58.744 5.655 59.32 4.77 A 2.613 2.613 0 0 1 61.179 3.591 A 4.108 4.108 0 0 1 61.84 3.54 Q 62.94 3.54 63.612 4.03 A 2.134 2.134 0 0 1 64.08 4.5 Q 64.78 5.46 64.78 7.34 Z M 6.84 8.1 L 6.84 9.06 L 1.6 9.06 A 8.975 8.975 0 0 0 1.65 9.935 Q 1.764 10.962 2.13 11.53 Q 2.64 12.32 3.72 12.32 A 1.384 1.384 0 0 0 4.773 11.868 A 1.786 1.786 0 0 0 4.89 11.73 Q 5.294 11.201 5.335 10.358 A 4.015 4.015 0 0 0 5.34 10.16 L 6.84 10.16 Q 6.84 11.76 5.97 12.71 Q 5.1 13.66 3.68 13.66 A 4.559 4.559 0 0 1 2.586 13.537 A 2.907 2.907 0 0 1 0.91 12.46 Q 0.08 11.365 0.007 9.07 A 14.252 14.252 0 0 1 0 8.62 Q 0 6.02 0.9 4.78 Q 1.8 3.54 3.64 3.54 Q 5.28 3.54 6.06 4.62 A 3.31 3.31 0 0 1 6.5 5.507 Q 6.792 6.373 6.833 7.664 A 13.666 13.666 0 0 1 6.84 8.1 Z M 18.56 8.1 L 18.56 9.06 L 13.32 9.06 A 8.975 8.975 0 0 0 13.37 9.935 Q 13.484 10.962 13.85 11.53 Q 14.36 12.32 15.44 12.32 A 1.384 1.384 0 0 0 16.493 11.868 A 1.786 1.786 0 0 0 16.61 11.73 Q 17.014 11.201 17.055 10.358 A 4.015 4.015 0 0 0 17.06 10.16 L 18.56 10.16 Q 18.56 11.76 17.69 12.71 Q 16.82 13.66 15.4 13.66 A 4.559 4.559 0 0 1 14.306 13.537 A 2.907 2.907 0 0 1 12.63 12.46 Q 11.8 11.365 11.727 9.07 A 14.252 14.252 0 0 1 11.72 8.62 Q 11.72 6.02 12.62 4.78 Q 13.52 3.54 15.36 3.54 Q 17 3.54 17.78 4.62 A 3.31 3.31 0 0 1 18.22 5.507 Q 18.512 6.373 18.553 7.664 A 13.666 13.666 0 0 1 18.56 8.1 Z M 86.34 0.22 L 86.34 1.28 L 85.54 1.28 A 1.302 1.302 0 0 0 85.197 1.321 Q 84.805 1.429 84.699 1.816 A 1.232 1.232 0 0 0 84.66 2.14 L 84.66 3.76 L 86.34 3.76 L 86.34 5.12 L 84.66 5.12 L 84.66 13.44 L 83.16 13.44 L 83.16 5.12 L 82.3 5.12 L 82.3 3.76 L 83.16 3.76 L 83.16 2.22 A 3.25 3.25 0 0 1 83.24 1.48 A 2.389 2.389 0 0 1 83.61 0.64 Q 84.035 0.036 84.967 0.002 A 3.102 3.102 0 0 1 85.08 0 A 3.689 3.689 0 0 1 85.958 0.102 A 3.251 3.251 0 0 1 86.34 0.22 Z M 30.74 3.76 L 30.74 5.12 L 29.46 5.12 L 29.46 11.44 A 1.29 1.29 0 0 0 29.484 11.695 Q 29.532 11.936 29.68 12.09 Q 29.9 12.32 30.32 12.32 L 30.74 12.32 L 30.74 13.36 A 1.068 1.068 0 0 1 30.574 13.449 Q 30.489 13.486 30.388 13.516 A 2.226 2.226 0 0 1 30.26 13.55 Q 29.96 13.62 29.66 13.62 Q 28.76 13.62 28.35 12.98 Q 27.941 12.341 27.94 11.403 A 3.85 3.85 0 0 1 27.94 11.4 L 27.94 5.12 L 27.1 5.12 L 27.1 3.76 L 27.94 3.76 L 28.28 1.08 L 29.46 1.08 L 29.46 3.76 L 30.74 3.76 Z M 8.54 13.44 L 8.54 0.14 L 10.06 0.14 L 10.06 13.44 L 8.54 13.44 Z M 35.96 3.68 L 35.96 5.26 L 35.46 5.26 A 1.837 1.837 0 0 0 34.811 5.371 A 1.633 1.633 0 0 0 34.18 5.8 A 1.606 1.606 0 0 0 33.861 6.335 Q 33.691 6.788 33.681 7.451 A 5.584 5.584 0 0 0 33.68 7.54 L 33.68 13.44 L 32.16 13.44 L 32.16 3.76 L 33.3 3.76 L 33.52 5.04 L 33.62 5.04 A 3.044 3.044 0 0 1 33.889 4.419 A 2.489 2.489 0 0 1 34.22 3.97 A 1.33 1.33 0 0 1 35.142 3.544 A 1.81 1.81 0 0 1 35.26 3.54 A 1.672 1.672 0 0 1 35.524 3.56 A 1.358 1.358 0 0 1 35.7 3.6 A 35.803 35.803 0 0 1 35.781 3.624 Q 35.913 3.664 35.96 3.68 Z M 42.039 3.994 A 3.251 3.251 0 0 0 40.28 3.54 Q 37.48 3.54 36.933 6.829 A 10.976 10.976 0 0 0 36.8 8.62 A 11.334 11.334 0 0 0 36.895 10.145 Q 37.206 12.427 38.54 13.227 A 3.322 3.322 0 0 0 40.28 13.66 Q 43.064 13.66 43.608 10.397 A 10.867 10.867 0 0 0 43.74 8.62 A 11.501 11.501 0 0 0 43.641 7.046 Q 43.329 4.801 42.039 3.994 Z M 71.339 3.994 A 3.251 3.251 0 0 0 69.58 3.54 Q 66.78 3.54 66.233 6.829 A 10.976 10.976 0 0 0 66.1 8.62 A 11.334 11.334 0 0 0 66.195 10.145 Q 66.506 12.427 67.84 13.227 A 3.322 3.322 0 0 0 69.58 13.66 Q 72.364 13.66 72.908 10.397 A 10.867 10.867 0 0 0 73.04 8.62 A 11.501 11.501 0 0 0 72.941 7.046 Q 72.629 4.801 71.339 3.994 Z M 38.38 8.26 L 38.38 8.94 A 8.983 8.983 0 0 0 38.447 10.089 Q 38.605 11.305 39.135 11.858 A 1.515 1.515 0 0 0 40.28 12.32 A 1.548 1.548 0 0 0 41.76 11.339 Q 42.16 10.499 42.16 8.94 L 42.16 8.26 A 9.493 9.493 0 0 0 42.123 7.39 Q 42.039 6.482 41.766 5.899 A 2.504 2.504 0 0 0 41.69 5.75 A 1.791 1.791 0 0 0 41.303 5.259 Q 40.891 4.9 40.28 4.9 A 1.565 1.565 0 0 0 38.784 5.876 Q 38.38 6.711 38.38 8.26 Z M 67.68 8.26 L 67.68 8.94 A 8.983 8.983 0 0 0 67.747 10.089 Q 67.905 11.305 68.435 11.858 A 1.515 1.515 0 0 0 69.58 12.32 A 1.548 1.548 0 0 0 71.06 11.339 Q 71.46 10.499 71.46 8.94 L 71.46 8.26 A 9.493 9.493 0 0 0 71.423 7.39 Q 71.339 6.482 71.066 5.899 A 2.504 2.504 0 0 0 70.99 5.75 A 1.791 1.791 0 0 0 70.603 5.259 Q 70.191 4.9 69.58 4.9 A 1.565 1.565 0 0 0 68.084 5.876 Q 67.68 6.711 67.68 8.26 Z M 53.02 9.38 L 53.02 7.58 L 57.66 7.58 L 57.66 9.38 L 53.02 9.38 Z M 1.62 7.7 L 5.26 7.7 A 7.233 7.233 0 0 0 5.203 6.748 Q 4.956 4.9 3.64 4.9 A 2.191 2.191 0 0 0 3.055 4.973 A 1.497 1.497 0 0 0 2.19 5.59 A 2.532 2.532 0 0 0 1.911 6.151 Q 1.704 6.717 1.632 7.548 A 9.258 9.258 0 0 0 1.62 7.7 Z M 13.34 7.7 L 16.98 7.7 A 7.233 7.233 0 0 0 16.923 6.748 Q 16.676 4.9 15.36 4.9 A 2.191 2.191 0 0 0 14.775 4.973 A 1.497 1.497 0 0 0 13.91 5.59 A 2.532 2.532 0 0 0 13.631 6.151 Q 13.424 6.717 13.352 7.548 A 9.258 9.258 0 0 0 13.34 7.7 Z"/>
  </g>
</svg>
