<svg xmlns="http://www.w3.org/2000/svg" viewBox="0 0 318.4 346.2">
    <defs>
        <style>
            .eb597f98-15d7-449b-a1be-f6644a36ae06{fill:#00cafd;}
            .e6dc9884-6819-45a6-aaa0-52ef8dcf90ab{fill:#0af;}
            .e93d2b76-ba1b-4d50-87fc-cf9a24dfecb9{fill:#00a9ff;}
        </style>
    </defs>
    <g id="a06836c8-4cfa-4174-b084-9992ed2c3026">
        <g id="ae8f608d-a9a8-49ed-aa25-b42162cdc9ad">
            <path class="eb597f98-15d7-449b-a1be-f6644a36ae06" style="fill:#00cafd;"
                  d="M317.42,133.83c.33,28.92,1.05,57.83,1,86.75,0,4.75-1.37,6.9-6.16,8.36-21.13,6.45-42.1,13.43-63.13,20.21-7.77,2.5-8.56,1.95-8.57-6.3,0-2.48.33-5,.54-7.44.08-1,.28-2.13-.59-2.79-1.2-.9-2.21.1-3.11.76-14.53,10.57-30,19.74-45,29.59-4.72,3.1-9.68,5.85-14.31,9.08-13.22,9.23-26.33,7.67-39.19-.45-18.54-11.71-36.91-23.69-55.38-35.52-1.18-.75-2.22-2.54-3.84-1.62s-.92,2.71-.94,4.14c-.32,23.43-.68,46.85-.87,70.28-.21,26.24-28,44.63-52.28,34.45-15.34-6.44-23.21-17.71-23.82-34.59C0,258.71,1.62,208.67.72,158.65.37,139.71.06,120.77,0,101.83c0-7.76.48-8.24,7.24-4.06,16,9.88,31.69,20.14,47.57,30.16,32,20.21,63.19,41.83,96.44,60.1,4.7,2.58,9.15,3.29,14.16.85,9.13-4.45,18.2-9,26.17-15.37,11.71-9.37,15.77-22.11,15.86-36.61.07-10-1.06-20,.56-29.88,6-36.4,45.48-56.93,79.07-41,19.73,9.36,30.51,25,30.36,47.35C317.38,120.2,317.42,127,317.42,133.83Z"/>
            <path class="eb597f98-15d7-449b-a1be-f6644a36ae06" style="fill:#00cafd;"
                  d="M158.48,0c6.16.57,11.75,3.15,17.15,6.1,14.47,7.89,27.86,17.5,41.7,26.4,5.59,3.59,11.25,7.08,16.93,10.52,4.31,2.6,4.41,3.49.39,6Q168.33,90.64,102.06,132.3c-3.13,2-5.32,1.79-8.52-.15C74.1,120.32,55.12,107.76,36,95.5c-4.19-2.68-8.23-5.63-12.53-8.13-3-1.73-3.15-2.82-.2-4.78C36,74.13,48.49,65.38,61.3,57,83.58,42.52,106,28.26,128.37,13.83A194.85,194.85,0,0,1,147.75,2.55C151.14.88,154.74.52,158.48,0Z"/>
            <path class="e6dc9884-6819-45a6-aaa0-52ef8dcf90ab"
                  d="M318.35,279.62c-.53,9.66.35,20.78-.82,31.9-3,28.49-35,44.08-59.09,28.55-10.85-7-16.08-17.17-17.14-29.91-.93-11.28-.67-22.56-.87-33.85-.07-4.3,1.51-6.63,5.71-8,22.14-7.09,44.2-14.43,66.3-21.65,5.28-1.72,5.85-1.33,5.89,4.08C318.39,259.9,318.35,269,318.35,279.62Z"/>
            <path class="e93d2b76-ba1b-4d50-87fc-cf9a24dfecb9"
                  d="M317.43,113.38c.15-22.38-10.63-38-30.36-47.35C253.48,50.09,214,70.62,208,107c-1.62,9.85-.49,19.92-.56,29.88-.09,14.5-4.15,27.24-15.86,36.61-8,6.37-17,10.92-26.17,15.37a13.8,13.8,0,0,1-6.21,1.5v88c6.26.06,12.57-1.88,18.9-6.3,4.63-3.23,9.59-6,14.31-9.08,15-9.85,30.44-19,45-29.59.9-.66,1.91-1.66,3.11-.76.87.66.67,1.79.59,2.79-.21,2.48-.54,5-.54,7.44,0,8.25.8,8.8,8.57,6.3,21-6.78,42-13.76,63.13-20.21,4.79-1.46,6.15-3.61,6.16-8.36.07-28.92-.65-57.83-1-86.75C317.42,127,317.38,120.2,317.43,113.38Z"/>
        </g>
    </g>
</svg>